<?xml version="1.0" encoding="UTF-8" standalone="no"?><svg xmlns="http://www.w3.org/2000/svg" xmlns:xlink="http://www.w3.org/1999/xlink" contentScriptType="application/ecmascript" contentStyleType="text/css" height="661px" preserveAspectRatio="none" style="width:1176px;height:661px;" version="1.1" viewBox="0 0 1176 661" width="1176px" zoomAndPan="magnify"><defs><filter height="300%" id="f1q76ocv8wcz0v" width="300%" x="-1" y="-1"><feGaussianBlur result="blurOut" stdDeviation="2.0"/><feColorMatrix in="blurOut" result="blurOut2" type="matrix" values="0 0 0 0 0 0 0 0 0 0 0 0 0 0 0 0 0 0 .4 0"/><feOffset dx="4.0" dy="4.0" in="blurOut2" result="blurOut3"/><feBlend in="SourceGraphic" in2="blurOut3" mode="normal"/></filter></defs><g><!--MD5=[236203f2905d1428ed2de8ff860a5129]
cluster management-network--><path d="M130.8406,34.5011 C154.1599,3.6811 176.5674,-2.6454 203.1,30.8935 C225.9989,4.3559 246.1042,2.3106 264.7606,35.2888 C285.4531,4.2882 318.5751,4.3465 335.8965,38.9444 C356.1626,-0.6312 379.8728,-2.231 406.2241,33.242 C421.1811,-2.9715 456.9715,-8.1946 478.6619,26.3486 C505.4427,-4.1039 531.3142,-9.623 552.374,32.1846 C568.3838,-5.9132 598.6768,-4.4998 619.8878,27.1501 C643.1518,-17.5985 675.2324,-10.2211 700.3964,25.2431 C721.8556,-2.5047 742.4386,-5.1723 761.1875,27.9499 C789.1474,-10.5975 817.8743,-0.0978 837.4614,36.4537 C854.4582,3.6759 879.961,3.411 902.9342,29.8453 C933.1348,-2.6227 956.0279,-0.6615 977.2299,39.1013 C999.7259,4.7803 1029.8406,0.0282 1055.3136,35.7842 C1078.1125,8.452 1101.0035,9.0907 1121,39 C1123.2032,39.0645 1123.947,40.133 1123.0337,42.1865 C1151.9658,63.5157 1158.5317,87.5964 1123.6126,109.475 C1162.475,127.264 1158.166,159.256 1130.0466,182.9134 C1163.9222,200.2928 1164.7923,229.2513 1133.5392,250.0204 C1160.2416,277.5791 1156.6981,311.0997 1114,319 C1120.6674,319.1016 1123.0595,323.9909 1120.2269,329.648 C1098.51,357.891 1069.2565,354.8669 1055.196,321.5588 C1032.2079,356.4309 1000.8327,370.3683 972.5737,327.1344 C956.4939,362.8617 934.5446,359.5802 909.7849,336.3835 C882.339,369.2481 856.6016,360.6073 838.4969,326.4479 C820.2568,364.0958 793.9675,367.8161 766.8191,335.5856 C747.0015,364.7684 718.1346,368.3649 697.0544,337.0413 C677.0674,373.4105 651.3767,377.806 627.2738,340.9643 C602.3279,378.9969 574.5467,371.647 552.6145,337.8325 C523.0362,370.9546 496.8205,366.7514 478.0843,326.7775 C458.961,361.6937 428.2509,363.5106 409.0759,326.8273 C387.4342,362.4852 362.4267,356.7931 339.0824,328.6965 C318.8487,359.2273 289.4125,360.7975 266.296,332.248 C244.0623,367.8678 221.5685,362.8554 199.6322,331.9499 C167.1041,362.9642 129.4563,354.2641 114,312 C117.0509,311.9069 119.1066,313.8674 117.7216,317.0459 C87.612,296.8318 86.5664,273.247 115.3245,250.8996 C82.8391,230.0474 83.781,197.6674 113.8177,175.5647 C90.3163,154.5744 90.4206,128.9423 123.6515,117.5722 C88.1412,95.9024 80.0408,56.0393 121,32 C125.0661,28.4703 128.983,29.3417 130.8406,34.5011 " fill="#FFFFFF" style="stroke: #000000; stroke-width: 1.5;"/><text fill="#000000" font-family="sans-serif" font-size="14" font-weight="bold" lengthAdjust="spacingAndGlyphs" textLength="174" x="530.5" y="49.9951">management-network</text><!--MD5=[eb432aaa25ae3554221968b4af7964c0]
cluster server-3--><polygon fill="#FFFFFF" filter="url(#f1q76ocv8wcz0v)" points="796,197,806,187,1105,187,1105,293,1095,303,796,303,796,197" style="stroke: #000000; stroke-width: 1.5;"/><line style="stroke: #000000; stroke-width: 1.5;" x1="1095" x2="1104" y1="197" y2="188"/><line style="stroke: #000000; stroke-width: 1.5;" x1="796" x2="1095" y1="197" y2="197"/><line style="stroke: #000000; stroke-width: 1.5;" x1="1095" x2="1095" y1="197" y2="303"/><text fill="#000000" font-family="sans-serif" font-size="14" font-weight="bold" lengthAdjust="spacingAndGlyphs" textLength="68" x="912.5" y="212.9951">server-3</text><!--MD5=[dae51654691fe8dbfe89a7bea3a2733d]
cluster server-2--><polygon fill="#FFFFFF" filter="url(#f1q76ocv8wcz0v)" points="463,197,473,187,772,187,772,293,762,303,463,303,463,197" style="stroke: #000000; stroke-width: 1.5;"/><line style="stroke: #000000; stroke-width: 1.5;" x1="762" x2="771" y1="197" y2="188"/><line style="stroke: #000000; stroke-width: 1.5;" x1="463" x2="762" y1="197" y2="197"/><line style="stroke: #000000; stroke-width: 1.5;" x1="762" x2="762" y1="197" y2="303"/><text fill="#000000" font-family="sans-serif" font-size="14" font-weight="bold" lengthAdjust="spacingAndGlyphs" textLength="68" x="579.5" y="212.9951">server-2</text><!--MD5=[5bba2d40ffcf1298b6a1313c99520bdd]
cluster server-1--><polygon fill="#FFFFFF" filter="url(#f1q76ocv8wcz0v)" points="130,197,140,187,439,187,439,293,429,303,130,303,130,197" style="stroke: #000000; stroke-width: 1.5;"/><line style="stroke: #000000; stroke-width: 1.5;" x1="429" x2="438" y1="197" y2="188"/><line style="stroke: #000000; stroke-width: 1.5;" x1="130" x2="429" y1="197" y2="197"/><line style="stroke: #000000; stroke-width: 1.5;" x1="429" x2="429" y1="197" y2="303"/><text fill="#000000" font-family="sans-serif" font-size="14" font-weight="bold" lengthAdjust="spacingAndGlyphs" textLength="68" x="246.5" y="212.9951">server-1</text><!--MD5=[c5c7150ebc00c7a98db0a9c5c90636d1]
cluster nodes-network--><path d="M38.1578,513.4765 C57.209,487.0682 79.7568,481.5805 98.8986,513.3819 C111.4599,485.0733 132.0055,488.0521 149.3097,508.4755 C161.323,482.9083 188.7338,479.06 204.4393,504.4836 C223.1897,479.8824 243.0992,472.0444 262.7983,503.496 C284.0636,472.0112 302.3305,475.496 322.0715,504.978 C340.3724,475.9345 361.5568,478.7719 379.887,504.9473 C393.7937,479.5831 418.9932,476.6146 433.1343,504.7139 C447.2167,478.3284 464.8028,472.8415 486.0228,497.2875 C505.368,472.1981 528.5041,476.4026 540.9318,504.4374 C556.8369,479.6522 579.2812,473.2642 596.6802,502.9073 C616.3647,474.9476 639.957,483.9071 654.3045,508.7334 C671.1733,489.3992 692.0041,486.8836 705.2008,512.8583 C721.4961,487.1298 740.8863,485.0993 761.7483,507.4919 C784.062,485.3465 805.0398,486.5826 822,514 C823.0926,512.5813 824.2248,512.6407 825.091,514.2325 C836.975,521.0657 838.0478,529.8917 828.2057,539.4123 C840.6286,541.8594 842.4537,552.6497 834.6036,561.0823 C843.3054,571.0403 840.4282,577.8857 829.014,582.6242 C834.3752,596.3685 829.4102,604.6225 815,607 C816.2749,605.5559 817.2766,605.7037 818.2978,607.2773 C806.6489,635.5336 783.2287,637.3244 767.2166,611.3901 C750.9471,640.5888 726.2668,639.6407 710.5182,610.8804 C693.7836,636.5231 676.3819,637.373 656.949,613.8186 C642.0333,641.9878 613.0533,643.8943 596.4452,615.6332 C581.5223,639.0134 553.3594,637.6973 539.775,614.0213 C527.0744,647.018 501.9952,645.9791 482.344,620.894 C465.9322,644.6641 448.9426,642.6184 435.2905,618.1994 C419.2532,649.7172 396.546,648.4102 376.8691,621.8612 C359.6379,644.1978 335.2941,646.584 322.7563,616.9722 C304.1494,644.6682 277.2057,643.738 263.7268,611.8886 C249.0148,638.0364 232.2121,640.1712 211.8469,617.9525 C192.4661,646.867 174.7633,642.2163 156.2458,617.0647 C138.9124,647.2293 117.8826,644.1617 100.731,616.889 C67.9713,647.8439 45.8614,639.8155 30,600 C32.7326,598.5091 34.3829,599.6581 34.4213,602.6545 C21.7608,598.7719 18.552,592.1739 26.32,580.7394 C15.266,577.3192 12.8108,570.1234 18.9502,560.456 C8.6941,550.9238 13.8134,541.3459 25.0429,537.5216 C13.2081,520.7503 17.4957,511.4939 37,507 C40.4962,508.4122 40.501,511.0204 38.1578,513.4765 " fill="#FFFFFF" style="stroke: #000000; stroke-width: 1.5;"/><text fill="#000000" font-family="sans-serif" font-size="14" font-weight="bold" lengthAdjust="spacingAndGlyphs" textLength="121" x="365.5" y="524.9951">nodes-network</text><!--MD5=[379f2d9071442af8fd0e37f554c84170]
entity gm--><polygon fill="#FEFECE" filter="url(#f1q76ocv8wcz0v)" points="122.5,88,132.5,78,269.5,78,269.5,114.2969,259.5,124.2969,122.5,124.2969,122.5,88" style="stroke: #000000; stroke-width: 1.5;"/><line style="stroke: #000000; stroke-width: 1.5;" x1="259.5" x2="268.5" y1="88" y2="79"/><line style="stroke: #000000; stroke-width: 1.5;" x1="122.5" x2="259.5" y1="88" y2="88"/><line style="stroke: #000000; stroke-width: 1.5;" x1="259.5" x2="259.5" y1="88" y2="124.2969"/><text fill="#000000" font-family="sans-serif" font-size="14" lengthAdjust="spacingAndGlyphs" textLength="107" x="137.5" y="110.9951">group-manager</text><!--MD5=[6186517b0f979c270c1f201d839d1352]
entity c3--><rect fill="#FEFECE" filter="url(#f1q76ocv8wcz0v)" height="36.2969" style="stroke: #000000; stroke-width: 1.5;" width="66" x="1023" y="251"/><text fill="#000000" font-family="sans-serif" font-size="14" lengthAdjust="spacingAndGlyphs" textLength="46" x="1033" y="273.9951">consul</text><!--MD5=[ed4fc13c771fbd8c2985ef64f8dc049e]
entity v3--><rect fill="#FEFECE" filter="url(#f1q76ocv8wcz0v)" height="36.2969" style="stroke: #000000; stroke-width: 1.5;" width="52" x="936" y="251"/><text fill="#000000" font-family="sans-serif" font-size="14" lengthAdjust="spacingAndGlyphs" textLength="32" x="946" y="273.9951">vault</text><!--MD5=[d236c9e80d6be685e6fcea00aa55c743]
entity r3--><rect fill="#FEFECE" filter="url(#f1q76ocv8wcz0v)" height="36.2969" style="stroke: #000000; stroke-width: 1.5;" width="89" x="811.5" y="251"/><text fill="#000000" font-family="sans-serif" font-size="14" lengthAdjust="spacingAndGlyphs" textLength="69" x="821.5" y="273.9951">rks-server</text><!--MD5=[3d2111c8a0a2d14b8769ddc11704380e]
entity c2--><rect fill="#FEFECE" filter="url(#f1q76ocv8wcz0v)" height="36.2969" style="stroke: #000000; stroke-width: 1.5;" width="66" x="690" y="251"/><text fill="#000000" font-family="sans-serif" font-size="14" lengthAdjust="spacingAndGlyphs" textLength="46" x="700" y="273.9951">consul</text><!--MD5=[01c9f1443dd0e1995dfde29bbc4e2853]
entity v2--><rect fill="#FEFECE" filter="url(#f1q76ocv8wcz0v)" height="36.2969" style="stroke: #000000; stroke-width: 1.5;" width="52" x="603" y="251"/><text fill="#000000" font-family="sans-serif" font-size="14" lengthAdjust="spacingAndGlyphs" textLength="32" x="613" y="273.9951">vault</text><!--MD5=[2d034b0875f5e28a2e66ba2265252e77]
entity r2--><rect fill="#FEFECE" filter="url(#f1q76ocv8wcz0v)" height="36.2969" style="stroke: #000000; stroke-width: 1.5;" width="89" x="478.5" y="251"/><text fill="#000000" font-family="sans-serif" font-size="14" lengthAdjust="spacingAndGlyphs" textLength="69" x="488.5" y="273.9951">rks-server</text><!--MD5=[0aac872f208ab6f5f7887aae079fb447]
entity c1--><rect fill="#FEFECE" filter="url(#f1q76ocv8wcz0v)" height="36.2969" style="stroke: #000000; stroke-width: 1.5;" width="66" x="357" y="251"/><text fill="#000000" font-family="sans-serif" font-size="14" lengthAdjust="spacingAndGlyphs" textLength="46" x="367" y="273.9951">consul</text><!--MD5=[e2e02fbf9e601af9c8046d2e5b3d57ce]
entity v1--><rect fill="#FEFECE" filter="url(#f1q76ocv8wcz0v)" height="36.2969" style="stroke: #000000; stroke-width: 1.5;" width="52" x="270" y="251"/><text fill="#000000" font-family="sans-serif" font-size="14" lengthAdjust="spacingAndGlyphs" textLength="32" x="280" y="273.9951">vault</text><!--MD5=[97bded9ea8416bc4240d1ecd7eca0282]
entity r1--><rect fill="#FEFECE" filter="url(#f1q76ocv8wcz0v)" height="36.2969" style="stroke: #000000; stroke-width: 1.5;" width="89" x="145.5" y="251"/><text fill="#000000" font-family="sans-serif" font-size="14" lengthAdjust="spacingAndGlyphs" textLength="69" x="155.5" y="273.9951">rks-server</text><!--MD5=[9b5fd479ff9e12a7cc0df0f0353b59f8]
entity a1--><polygon fill="#FEFECE" filter="url(#f1q76ocv8wcz0v)" points="38.5,563,48.5,553,165.5,553,165.5,589.2969,155.5,599.2969,38.5,599.2969,38.5,563" style="stroke: #000000; stroke-width: 1.5;"/><line style="stroke: #000000; stroke-width: 1.5;" x1="155.5" x2="164.5" y1="563" y2="554"/><line style="stroke: #000000; stroke-width: 1.5;" x1="38.5" x2="155.5" y1="563" y2="563"/><line style="stroke: #000000; stroke-width: 1.5;" x1="155.5" x2="155.5" y1="563" y2="599.2969"/><text fill="#000000" font-family="sans-serif" font-size="14" lengthAdjust="spacingAndGlyphs" textLength="87" x="53.5" y="585.9951">client-node1</text><!--MD5=[f89d8cb67b4d8c974030bdacf9c0cf39]
entity a2--><polygon fill="#FEFECE" filter="url(#f1q76ocv8wcz0v)" points="200.5,563,210.5,553,327.5,553,327.5,589.2969,317.5,599.2969,200.5,599.2969,200.5,563" style="stroke: #000000; stroke-width: 1.5;"/><line style="stroke: #000000; stroke-width: 1.5;" x1="317.5" x2="326.5" y1="563" y2="554"/><line style="stroke: #000000; stroke-width: 1.5;" x1="200.5" x2="317.5" y1="563" y2="563"/><line style="stroke: #000000; stroke-width: 1.5;" x1="317.5" x2="317.5" y1="563" y2="599.2969"/><text fill="#000000" font-family="sans-serif" font-size="14" lengthAdjust="spacingAndGlyphs" textLength="87" x="215.5" y="585.9951">client-node2</text><!--MD5=[5fd553d62ae787dc09382bbdf294aa1e]
entity a3--><polygon fill="#FEFECE" filter="url(#f1q76ocv8wcz0v)" points="362.5,563,372.5,553,489.5,553,489.5,589.2969,479.5,599.2969,362.5,599.2969,362.5,563" style="stroke: #000000; stroke-width: 1.5;"/><line style="stroke: #000000; stroke-width: 1.5;" x1="479.5" x2="488.5" y1="563" y2="554"/><line style="stroke: #000000; stroke-width: 1.5;" x1="362.5" x2="479.5" y1="563" y2="563"/><line style="stroke: #000000; stroke-width: 1.5;" x1="479.5" x2="479.5" y1="563" y2="599.2969"/><text fill="#000000" font-family="sans-serif" font-size="14" lengthAdjust="spacingAndGlyphs" textLength="87" x="377.5" y="585.9951">client-node3</text><!--MD5=[271a946153eabc1495ee7e2445644215]
entity a4--><polygon fill="#FEFECE" filter="url(#f1q76ocv8wcz0v)" points="524.5,563,534.5,553,651.5,553,651.5,589.2969,641.5,599.2969,524.5,599.2969,524.5,563" style="stroke: #000000; stroke-width: 1.5;"/><line style="stroke: #000000; stroke-width: 1.5;" x1="641.5" x2="650.5" y1="563" y2="554"/><line style="stroke: #000000; stroke-width: 1.5;" x1="524.5" x2="641.5" y1="563" y2="563"/><line style="stroke: #000000; stroke-width: 1.5;" x1="641.5" x2="641.5" y1="563" y2="599.2969"/><text fill="#000000" font-family="sans-serif" font-size="14" lengthAdjust="spacingAndGlyphs" textLength="87" x="539.5" y="585.9951">client-node4</text><!--MD5=[cd79c22466dba43b02dd713e66f87bf6]
entity a5--><polygon fill="#FEFECE" filter="url(#f1q76ocv8wcz0v)" points="686.5,563,696.5,553,813.5,553,813.5,589.2969,803.5,599.2969,686.5,599.2969,686.5,563" style="stroke: #000000; stroke-width: 1.5;"/><line style="stroke: #000000; stroke-width: 1.5;" x1="803.5" x2="812.5" y1="563" y2="554"/><line style="stroke: #000000; stroke-width: 1.5;" x1="686.5" x2="803.5" y1="563" y2="563"/><line style="stroke: #000000; stroke-width: 1.5;" x1="803.5" x2="803.5" y1="563" y2="599.2969"/><text fill="#000000" font-family="sans-serif" font-size="14" lengthAdjust="spacingAndGlyphs" textLength="87" x="701.5" y="585.9951">client-node5</text><!--MD5=[b8126c81252de049c824a7564d46b033]
entity lb--><polygon fill="#FEFECE" filter="url(#f1q76ocv8wcz0v)" points="359.5,400,369.5,390,492.5,390,492.5,426.2969,482.5,436.2969,359.5,436.2969,359.5,400" style="stroke: #000000; stroke-width: 1.5;"/><line style="stroke: #000000; stroke-width: 1.5;" x1="482.5" x2="491.5" y1="400" y2="391"/><line style="stroke: #000000; stroke-width: 1.5;" x1="359.5" x2="482.5" y1="400" y2="400"/><line style="stroke: #000000; stroke-width: 1.5;" x1="482.5" x2="482.5" y1="400" y2="436.2969"/><text fill="#000000" font-family="sans-serif" font-size="14" lengthAdjust="spacingAndGlyphs" textLength="93" x="374.5" y="422.9951">load-balancer</text><!--MD5=[ff417a5728fced563c9835ded02c1656]
link c1 to c2--><path d="M401.01,246.41 C412.95,224.74 434.23,193.27 463,179 C540.66,140.49 572.05,163.74 658,175 C664.84,175.9 667.56,174.76 673,179 C694.93,196.09 708.66,225.64 716.07,246.19 " fill="none" id="c1-c2" style="stroke: #A80036; stroke-width: 1.0;"/><polygon fill="#A80036" points="717.73,250.95,718.5283,241.1336,716.0763,246.2314,710.9785,243.7794,717.73,250.95" style="stroke: #A80036; stroke-width: 1.0;"/><polygon fill="#A80036" points="398.61,250.88,406.4011,244.8552,400.9822,246.4786,399.3588,241.0596,398.61,250.88" style="stroke: #A80036; stroke-width: 1.0;"/><text fill="#000000" font-family="sans-serif" font-size="13" lengthAdjust="spacingAndGlyphs" textLength="66" x="591" y="167.0669">replication</text><!--MD5=[c3a072b43622f2891aed3533be07df5d]
link c1 to c3--><path d="M398.2,246.13 C407.72,223.42 425.81,189.91 454,175 C480.72,160.87 491.78,174.88 522,175 C575.78,175.22 959.76,151.54 1006,179 C1030.33,193.45 1043.69,224.45 1050.34,246 " fill="none" id="c1-c3" style="stroke: #A80036; stroke-width: 1.0;"/><polygon fill="#A80036" points="1051.82,250.99,1053.0865,241.2229,1050.3937,246.1977,1045.4189,243.5049,1051.82,250.99" style="stroke: #A80036; stroke-width: 1.0;"/><polygon fill="#A80036" points="396.3,250.8,403.3927,243.9667,398.1815,246.1675,395.9807,240.9563,396.3,250.8" style="stroke: #A80036; stroke-width: 1.0;"/><text fill="#000000" font-family="sans-serif" font-size="13" lengthAdjust="spacingAndGlyphs" textLength="66" x="455" y="167.0669">replication</text><!--MD5=[8e063688995c833a20a474357258d152]
link c2 to c3--><path d="M734.33,246.25 C746.4,224.77 767.66,193.7 796,179 C819.33,166.9 828.73,175.89 855,175 C922.1,172.73 948.98,143.57 1006,179 C1029.89,193.85 1043.31,224.45 1050.09,245.83 " fill="none" id="c2-c3" style="stroke: #A80036; stroke-width: 1.0;"/><polygon fill="#A80036" points="1051.6,250.78,1052.8051,241.0051,1050.1436,245.9968,1045.152,243.3353,1051.6,250.78" style="stroke: #A80036; stroke-width: 1.0;"/><polygon fill="#A80036" points="731.9,250.69,739.7444,244.7347,734.3112,246.3098,732.7361,240.8767,731.9,250.69" style="stroke: #A80036; stroke-width: 1.0;"/><text fill="#000000" font-family="sans-serif" font-size="13" lengthAdjust="spacingAndGlyphs" textLength="66" x="856" y="167.0669">replication</text><!--MD5=[fa214878e835859acff7eef0339243a9]
link r1 to v1--><path d="M234.72,269 C244.64,269 254.56,269 264.48,269 " fill="none" id="r1-&gt;v1" style="stroke: #A80036; stroke-width: 1.0;"/><polygon fill="#A80036" points="269.67,269,260.67,265,264.67,269,260.67,273,269.67,269" style="stroke: #A80036; stroke-width: 1.0;"/><!--MD5=[97720fd14d9b9634f8129ce4bcfa78e7]
link r2 to v2--><path d="M567.72,269 C577.64,269 587.56,269 597.48,269 " fill="none" id="r2-&gt;v2" style="stroke: #A80036; stroke-width: 1.0;"/><polygon fill="#A80036" points="602.67,269,593.67,265,597.67,269,593.67,273,602.67,269" style="stroke: #A80036; stroke-width: 1.0;"/><!--MD5=[d72790596a9b3893a010cdb67455c655]
link r3 to v3--><path d="M900.72,269 C910.64,269 920.56,269 930.48,269 " fill="none" id="r3-&gt;v3" style="stroke: #A80036; stroke-width: 1.0;"/><polygon fill="#A80036" points="935.67,269,926.67,265,930.67,269,926.67,273,935.67,269" style="stroke: #A80036; stroke-width: 1.0;"/><!--MD5=[b41e10c57acb14a14769f34e30ecd2a8]
link v1 to c1--><path d="M322.07,269 C331.94,269 341.8,269 351.67,269 " fill="none" id="v1-&gt;c1" style="stroke: #A80036; stroke-width: 1.0;"/><polygon fill="#A80036" points="356.83,269,347.83,265,351.83,269,347.83,273,356.83,269" style="stroke: #A80036; stroke-width: 1.0;"/><!--MD5=[bdf370f0a70998c95e44868348d8261d]
link v2 to c2--><path d="M655.07,269 C664.94,269 674.8,269 684.67,269 " fill="none" id="v2-&gt;c2" style="stroke: #A80036; stroke-width: 1.0;"/><polygon fill="#A80036" points="689.83,269,680.83,265,684.83,269,680.83,273,689.83,269" style="stroke: #A80036; stroke-width: 1.0;"/><!--MD5=[de3006018c05b40df48ae0e345de571d]
link v3 to c3--><path d="M988.07,269 C997.94,269 1007.8,269 1017.67,269 " fill="none" id="v3-&gt;c3" style="stroke: #A80036; stroke-width: 1.0;"/><polygon fill="#A80036" points="1022.83,269,1013.83,265,1017.83,269,1013.83,273,1022.83,269" style="stroke: #A80036; stroke-width: 1.0;"/><!--MD5=[f9260febc89cfe963dc0ebcf4876b913]
link gm to r1--><path d="M195.01,129.37 C193.84,161.86 191.9,215.41 190.81,245.56 " fill="none" id="gm-r1" style="stroke: #A80036; stroke-width: 1.0;"/><polygon fill="#A80036" points="190.62,250.91,194.9513,242.0647,190.8056,245.9134,186.9568,241.7677,190.62,250.91" style="stroke: #A80036; stroke-width: 1.0;"/><polygon fill="#A80036" points="195.2,124.04,190.894,132.8977,195.0287,129.0371,198.8893,133.1718,195.2,124.04" style="stroke: #A80036; stroke-width: 1.0;"/><text fill="#000000" font-family="sans-serif" font-size="13" lengthAdjust="spacingAndGlyphs" textLength="65" x="195" y="167.0669">RKS setup</text><!--MD5=[10c1e06ef851f2a5192d9e909fbcfaad]
reverse link lb to a1--><path d="M354.54,424.71 C303.16,435.1 234.21,454.82 183,491 C158.18,508.54 134.64,534.36 119.4,552.74 " fill="none" id="lb&lt;-a1" style="stroke: #A80036; stroke-width: 1.0;"/><polygon fill="#A80036" points="359.45,423.73,349.844,421.5566,354.5455,424.7023,351.3997,429.4038,359.45,423.73" style="stroke: #A80036; stroke-width: 1.0;"/><text fill="#000000" font-family="sans-serif" font-size="13" lengthAdjust="spacingAndGlyphs" textLength="76" x="225" y="479.0669">Get Secrets</text><!--MD5=[192c6a8e52b86d16ecf1889002914b01]
reverse link r1 to lb--><path d="M181.85,292.21 C176.1,312.17 171.81,341.15 187,360 C208.32,386.45 296.35,400.15 359.37,406.71 " fill="none" id="r1&lt;-lb" style="stroke: #A80036; stroke-width: 1.0;"/><polygon fill="#A80036" points="183.34,287.34,176.8858,294.7793,181.8796,292.122,184.5369,297.1159,183.34,287.34" style="stroke: #A80036; stroke-width: 1.0;"/><text fill="#000000" font-family="sans-serif" font-size="13" lengthAdjust="spacingAndGlyphs" textLength="76" x="188" y="356.0669">Get Secrets</text><!--MD5=[192c6a8e52b86d16ecf1889002914b01]
reverse link r1 to lb--><path d="M207.02,291.41 C218.81,305.19 235.49,322.76 253,335 C258.44,338.8 325.87,368.45 374.91,389.82 " fill="none" id="r1&lt;-lb-1" style="stroke: #A80036; stroke-width: 1.0;"/><polygon fill="#A80036" points="203.52,287.26,206.2815,296.7138,206.7504,291.0764,212.3877,291.5452,203.52,287.26" style="stroke: #A80036; stroke-width: 1.0;"/><text fill="#000000" font-family="sans-serif" font-size="13" lengthAdjust="spacingAndGlyphs" textLength="76" x="304" y="356.0669">Get Secrets</text><!--MD5=[41a197c7956b87467686ed9ea4da4372]
reverse link lb to a2--><path d="M377.19,438.7 C364.33,446.45 350.98,455.71 340,466 C312.39,491.87 288.97,529.33 275.69,552.91 " fill="none" id="lb&lt;-a2" style="stroke: #A80036; stroke-width: 1.0;"/><polygon fill="#A80036" points="381.53,436.13,371.7471,437.2681,377.2262,438.6751,375.8193,444.1542,381.53,436.13" style="stroke: #A80036; stroke-width: 1.0;"/><text fill="#000000" font-family="sans-serif" font-size="13" lengthAdjust="spacingAndGlyphs" textLength="76" x="341" y="479.0669">Get Secrets</text><!--MD5=[4aed3ab359fb04edbff6193465edd5fc]
reverse link r2 to lb--><path d="M499.09,290.53 C482.76,304.03 460.3,321.61 439,335 C432.27,339.23 427.18,336.24 423,343 C414.43,356.87 415.81,375.48 418.99,389.87 " fill="none" id="r2&lt;-lb" style="stroke: #A80036; stroke-width: 1.0;"/><polygon fill="#A80036" points="503.1,287.19,493.6243,289.8753,499.2577,290.3895,498.7435,296.023,503.1,287.19" style="stroke: #A80036; stroke-width: 1.0;"/><text fill="#000000" font-family="sans-serif" font-size="13" lengthAdjust="spacingAndGlyphs" textLength="76" x="424" y="356.0669">Get Secrets</text><!--MD5=[4aed3ab359fb04edbff6193465edd5fc]
reverse link r2 to lb--><path d="M523.21,292.3 C522.38,311.71 518.59,339.83 505,360 C496.83,372.12 484.8,382.1 472.57,389.96 " fill="none" id="r2&lt;-lb-1" style="stroke: #A80036; stroke-width: 1.0;"/><polygon fill="#A80036" points="523.38,287.07,519.0993,295.9399,523.2229,292.0675,527.0953,296.1912,523.38,287.07" style="stroke: #A80036; stroke-width: 1.0;"/><text fill="#000000" font-family="sans-serif" font-size="13" lengthAdjust="spacingAndGlyphs" textLength="76" x="514" y="356.0669">Get Secrets</text><!--MD5=[689bd7219a8d8aa65245e59f52ecdc8f]
reverse link lb to a3--><path d="M426,441.31 C426,472.78 426,523.9 426,552.96 " fill="none" id="lb&lt;-a3" style="stroke: #A80036; stroke-width: 1.0;"/><polygon fill="#A80036" points="426,436.05,422,445.05,426,441.05,430,445.05,426,436.05" style="stroke: #A80036; stroke-width: 1.0;"/><text fill="#000000" font-family="sans-serif" font-size="13" lengthAdjust="spacingAndGlyphs" textLength="76" x="427" y="479.0669">Get Secrets</text><!--MD5=[439759ee98164ec79404cc0f5164be1c]
reverse link r3 to lb--><path d="M834.64,290.86 C818.64,305.35 795.54,323.95 772,335 C680.64,377.88 564.33,397.42 492.54,405.93 " fill="none" id="r3&lt;-lb" style="stroke: #A80036; stroke-width: 1.0;"/><polygon fill="#A80036" points="838.55,287.28,829.216,290.4227,834.8678,290.6625,834.628,296.3143,838.55,287.28" style="stroke: #A80036; stroke-width: 1.0;"/><text fill="#000000" font-family="sans-serif" font-size="13" lengthAdjust="spacingAndGlyphs" textLength="76" x="746" y="356.0669">Get Secrets</text><!--MD5=[058251e683ead1016093efe0c3f0e617]
reverse link lb to a4--><path d="M474.81,438.7 C487.67,446.45 501.02,455.71 512,466 C539.61,491.87 563.03,529.33 576.31,552.91 " fill="none" id="lb&lt;-a4" style="stroke: #A80036; stroke-width: 1.0;"/><polygon fill="#A80036" points="470.47,436.13,476.1807,444.1542,474.7738,438.6751,480.2529,437.2681,470.47,436.13" style="stroke: #A80036; stroke-width: 1.0;"/><text fill="#000000" font-family="sans-serif" font-size="13" lengthAdjust="spacingAndGlyphs" textLength="76" x="528" y="479.0669">Get Secrets</text><!--MD5=[0fdd99ab7df2528c00f406f6d83be29c]
reverse link lb to a5--><path d="M497.65,424.86 C548.96,435.32 617.76,455.05 669,491 C693.88,508.45 717.41,534.29 732.63,552.7 " fill="none" id="lb&lt;-a5" style="stroke: #A80036; stroke-width: 1.0;"/><polygon fill="#A80036" points="492.74,423.88,500.7744,429.5764,497.6418,424.8661,502.3521,421.7335,492.74,423.88" style="stroke: #A80036; stroke-width: 1.0;"/><text fill="#000000" font-family="sans-serif" font-size="13" lengthAdjust="spacingAndGlyphs" textLength="76" x="652" y="479.0669">Get Secrets</text><!--MD5=[c5543072df297a8c5f14f43cfc585913]
@startuml

cloud "management-network"  {
  node "group-manager" as gm
  node "server-3" {
    rectangle consul as c3
    rectangle vault as v3
    rectangle "rks-server" as r3
  }
  node "server-2" {
    rectangle consul as c2
    rectangle vault as v2
    rectangle "rks-server" as r2
  }
  node "server-1" {
    rectangle consul as c1
    rectangle vault as v1
    rectangle "rks-server" as r1
  }
}

node "load-balancer" as lb

cloud "nodes-network" {
  node "client-node1" as a1
  node "client-node2" as a2
  node "client-node3" as a3
  node "client-node4" as a4
  node "client-node5" as a5
}

c1 <-> c2: replication
c1 <-> c3: replication
c2 <-> c3: replication

r1 -> v1
r2 -> v2
r3 -> v3

v1 -> c1
v2 -> c2
v3 -> c3

gm <-down-> r1: RKS setup

a1 -up-> lb: Get Secrets
lb -up-> r1: Get Secrets
a2 -up-> lb: Get Secrets
lb -up-> r2: Get Secrets
a3 -up-> lb: Get Secrets
lb -up-> r3: Get Secrets
a4 -up-> lb: Get Secrets
lb -up-> r2: Get Secrets
a5 -up-> lb: Get Secrets
lb -up-> r1: Get Secrets

@enduml

PlantUML version 1.2020.01(Sun Feb 16 18:40:32 CET 2020)
(GPL source distribution)
Java Runtime: OpenJDK Runtime Environment
JVM: OpenJDK 64-Bit Server VM
Java Version: 11.0.7+10-post-Debian-3
Operating System: Linux
Default Encoding: UTF-8
Language: fr
Country: FR
--></g></svg>